<svg xmlns="http://www.w3.org/2000/svg" width="729.5" height="296.802" viewBox="0 0 729.5 296.802">
  <path id="fancy" d="M729.5,0H0V.012a186.522,186.522,0,0,0,9.376,26.67,254.567,254.567,0,0,0,13.7,27.349A248.479,248.479,0,0,0,44.537,85.382a222.168,222.168,0,0,0,71.479,58.7A225.108,225.108,0,0,0,140.8,155a239.912,239.912,0,0,0,27.873,8.421,265.8,265.8,0,0,0,31.131,5.42,305.471,305.471,0,0,0,34.553,1.918c10.778,0,21.982-.538,33.3-1.6,11.72-1.1,23.891-2.789,36.176-5.024,12.7-2.31,25.875-5.267,39.168-8.789,13.715-3.634,27.938-7.972,42.275-12.894,60.707-20.84,102.553-30.546,131.69-30.546,45.642,0,56.8,23.684,72.254,56.464,4.722,10.019,9.605,20.38,16.012,31.329a191.385,191.385,0,0,0,41.939,50.314,223.792,223.792,0,0,0,21.906,16.4,276.618,276.618,0,0,0,27.181,15.7A360.438,360.438,0,0,0,729.5,296.8V0Z" transform="translate(729.5 296.802) rotate(180)" fill="#4f5fbe" opacity="0.1"/>
</svg>
